<?xml version="1.0" encoding="UTF-8"?>
<svg id="Layer_2" data-name="Layer 2" xmlns="http://www.w3.org/2000/svg" xmlns:xlink="http://www.w3.org/1999/xlink" viewBox="0 0 48 47.96">
  <defs>
    <style>
      .cls-1 {
        fill: url(#linear-gradient);
      }
    </style>
    <linearGradient id="linear-gradient" x1="40.97" y1="43.07" x2="7.03" y2="9.13" gradientTransform="translate(0 50.08) scale(1 -1)" gradientUnits="userSpaceOnUse">
      <stop offset="0" stop-color="#9751a0"/>
      <stop offset="1" stop-color="#755ba7"/>
    </linearGradient>
  </defs>
  <g id="Layer_1-2" data-name="Layer 1">
    <path class="cls-1" d="M22.49,7.37c.28,0,.5-.22.5-.5V0c-6.4.27-12.16,3.04-16.31,7.37h15.81ZM15.99,17.26c0,.28-.22.5-.5.5H.81c.82-3.08,2.24-5.91,4.13-8.37h10.55c.28,0,.5.22.5.5v7.37ZM41.32,40.59c-4.15,4.33-9.9,7.1-16.31,7.37v-6.87c0-.28.22-.5.5-.5h15.81ZM22.99,47.95c-6.4-.27-12.16-3.04-16.31-7.37h15.81c.28,0,.5.22.5.5v6.87ZM16.73,30.69c0-.28.22-.5.5-.5h29.96c-.82,3.08-2.24,5.91-4.13,8.37h-25.83c-.28,0-.5-.22-.5-.5v-7.37ZM36.18,20.29c0-.28.22-.5.5-.5h10.96c.24,1.36.36,2.76.36,4.19,0,1.43-.13,2.83-.37,4.19h-10.96c-.28,0-.5-.23-.5-.5v-3.94s0-3.43,0-3.43ZM15.02,38.06c0,.28-.22.5-.5.5H4.94c-1.88-2.46-3.3-5.29-4.13-8.37h13.71c.28,0,.5.22.5.5v7.37ZM.37,19.79h33.25c.28,0,.5.22.5.5v7.37c0,.28-.22.5-.5.5H.36C.13,26.8,0,25.41,0,23.98,0,22.55.13,21.15.37,19.79ZM18.02,9.89c0-.28.22-.5.5-.5h24.55c1.88,2.46,3.3,5.29,4.13,8.37h-28.67c-.28,0-.5-.22-.5-.5v-7.37ZM25.02,0c6.4.27,12.16,3.04,16.31,7.37h-15.81c-.28,0-.5-.22-.5-.5V0Z"/>
  </g>
</svg>